USFL
nRows=253
nColumns=2
inDegrees=yes
endheader
time	tib_ant_r	
2.95613	 63.426306	
2.99174	 63.282678	
3.02736	 63.241840	
3.06298	 63.101185	
3.09859	 62.937754	
3.13421	 62.861773	
3.16982	 62.679863	
3.20544	 62.595215	
3.24106	 62.559991	
3.27667	 62.364325	
3.31229	 62.227688	
3.3479	 62.243163	
3.38352	 62.173800	
3.41914	 62.133434	
3.45475	 62.119417	
3.49037	 62.132506	
3.52598	 62.158159	
3.5616	 62.179880	
3.59722	 62.251836	
3.63283	 62.317401	
3.66845	 62.328367	
3.70406	 62.533071	
3.73968	 62.581675	
3.7753	 62.641240	
3.81091	 62.769870	
3.84653	 62.813090	
3.88214	 62.883317	
3.91776	 62.896838	
3.95338	 62.930270	
3.98899	 62.913903	
4.02461	 62.899827	
4.06022	 62.849656	
4.09584	 62.850432	
4.13146	 62.869429	
4.16707	 62.887169	
4.20269	 62.906104	
4.2383	 62.910941	
4.27392	 62.951236	
4.30954	 62.977245	
4.34515	 62.926564	
4.38077	 62.867854	
4.41638	 62.840364	
4.452	 62.832610	
4.48762	 62.833529	
4.52323	 62.831795	
4.55885	 62.854369	
4.59446	 62.871343	
4.63008	 62.874334	
4.6657	 62.809269	
4.70131	 62.743278	
4.73693	 62.727838	
4.77254	 62.774068	
4.80816	 62.822095	
4.84378	 62.908561	
4.87939	 62.830300	
4.91501	 62.671087	
4.95062	 62.811949	
4.98624	 62.524500	
5.02186	 62.619112	
5.05747	 62.622777	
5.09309	 61.925546	
5.1287	 61.425388	
5.16432	 61.455936	
5.19994	 61.351947	
5.23555	 61.350162	
5.27117	 61.487471	
5.30678	 61.253850	
5.3424	 60.908689	
5.37802	 60.827257	
5.41363	 60.359489	
5.44925	 60.241393	
5.48486	 60.179081	
5.52048	 59.983409	
5.5561	 59.823690	
5.59171	 59.860199	
5.62733	 59.649186	
5.66294	 59.473241	
5.69856	 59.465800	
5.73418	 59.378686	
5.76979	 59.257389	
5.80541	 59.303709	
5.84102	 59.140320	
5.87664	 58.972498	
5.91226	 59.003983	
5.94787	 58.862770	
5.98349	 58.728453	
6.0191	 58.747641	
6.05472	 58.621585	
6.09034	 58.396078	
6.12595	 58.411491	
6.16157	 58.307284	
6.19718	 58.138573	
6.2328	 58.196685	
6.26842	 58.084660	
6.30403	 57.991870	
6.33965	 57.947396	
6.37526	 57.881116	
6.41088	 57.871356	
6.4465	 57.917690	
6.48211	 57.835326	
6.51773	 57.798468	
6.55334	 57.768633	
6.58896	 57.782058	
6.62458	 57.771363	
6.66019	 57.762910	
6.69581	 57.817015	
6.73142	 57.897504	
6.76704	 57.913599	
6.80266	 57.986992	
6.83827	 58.026233	
6.87389	 58.061520	
6.9095	 57.920784	
6.94512	 57.759297	
6.98074	 57.756687	
7.01635	 57.625417	
7.05197	 57.613403	
7.08758	 57.603623	
7.1232	 57.671333	
7.15882	 57.664225	
7.19443	 57.683307	
7.23005	 57.716275	
7.26566	 57.696066	
7.30128	 57.690334	
7.3369	 57.654714	
7.37251	 57.627555	
7.40813	 57.648036	
7.44374	 57.593573	
7.47936	 57.597105	
7.51498	 57.604296	
7.55059	 57.474191	
7.58621	 57.395630	
7.62182	 57.434104	
7.65744	 57.398289	
7.69306	 57.402517	
7.72867	 57.419516	
7.76429	 57.385628	
7.7999	 57.432684	
7.83552	 57.420121	
7.87114	 57.227250	
7.90675	 57.070811	
7.94237	 57.017874	
7.97798	 56.914700	
8.0136	 56.835905	
8.04922	 56.812970	
8.08483	 56.860929	
8.12045	 56.864598	
8.15606	 56.879762	
8.19168	 56.867633	
8.2273	 56.897041	
8.26291	 56.875305	
8.29853	 56.886647	
8.33414	 56.914973	
8.36976	 56.815005	
8.40538	 56.698735	
8.44099	 56.578067	
8.47661	 56.578603	
8.51222	 56.508880	
8.54784	 56.378668	
8.58346	 56.369243	
8.61907	 56.183924	
8.65469	 56.084588	
8.6903	 56.115076	
8.72592	 55.968591	
8.76154	 55.898905	
8.79715	 55.931842	
8.83277	 55.802896	
8.86838	 55.704784	
8.904	 55.755947	
8.93962	 55.584672	
8.97523	 55.516276	
9.01085	 55.606997	
9.04646	 55.448385	
9.08208	 55.343783	
9.1177	 55.350062	
9.15331	 55.328686	
9.18893	 55.283163	
9.22454	 55.214898	
9.26016	 55.258702	
9.29578	 55.232304	
9.33139	 55.251020	
9.36701	 55.222184	
9.40262	 55.124481	
9.43824	 55.135991	
9.47386	 54.961006	
9.50947	 54.839095	
9.54509	 54.871080	
9.5807	 54.821476	
9.61632	 54.764092	
9.65194	 54.764446	
9.68755	 54.768547	
9.72317	 54.820926	
9.75878	 54.836256	
9.7944	 54.801576	
9.83002	 54.759785	
9.86563	 54.725302	
9.90125	 54.729485	
9.93686	 54.737268	
9.97248	 54.745163	
10.0081	 54.768329	
10.0437	 54.783391	
10.0793	 54.803425	
10.1149	 54.795956	
10.1506	 54.722069	
10.1862	 54.733533	
10.2218	 54.741177	
10.2574	 54.726511	
10.293	 54.750975	
10.3286	 54.651981	
10.3643	 54.539554	
10.3999	 54.544044	
10.4355	 54.552787	
10.4711	 54.579785	
10.5067	 54.590671	
10.5423	 54.732170	
10.578	 54.773296	
10.6136	 54.589886	
10.6492	 54.733719	
10.6848	 54.836160	
10.7204	 54.731153	
10.756	 55.348517	
10.7916	 55.439891	
10.8273	 55.333364	
10.8629	 55.481232	
10.8985	 55.598899	
10.9341	 55.587414	
10.9697	 56.257011	
11.0053	 56.536539	
11.041	 56.752609	
11.0766	 57.481880	
11.1122	 57.823515	
11.1478	 57.907193	
11.1834	 58.307406	
11.219	 58.521193	
11.2547	 58.553821	
11.2903	 58.896938	
11.3259	 58.998987	
11.3615	 59.003031	
11.3971	 59.207406	
11.4327	 59.249432	
11.4684	 59.265419	
11.504	 59.348690	
11.5396	 59.408501	
11.5752	 59.435644	
11.6108	 59.422075	
11.6464	 59.430996	
11.682	 59.401680	
11.7177	 59.346256	
11.7533	 59.349806	
11.7889	 59.310931	
11.8245	 59.141987	
11.8601	 59.196343	
11.8957	 59.180060	
11.9314	 59.210510	
